<svg xmlns="http://www.w3.org/2000/svg" width="448" height="458" viewBox="0 0 448 458">
  <defs>
    <style>
      .cls-1 {
        fill: #fff;
      }

      .cls-2 {
        fill: #101820;
      }
    </style>
  </defs>
  <g id="그룹_2" data-name="그룹 2" transform="translate(-692)">
    <rect id="사각형_1" data-name="사각형 1" class="cls-1" width="448" height="458" transform="translate(692)"/>
    <g id="그룹_1" data-name="그룹 1" transform="translate(219.572 5)">
      <path id="패스_1" data-name="패스 1" class="cls-2" d="M48.428-399.387V4.53q0,9.312,6.3,14.55,5.037,4.074,13.223,4.074A23.118,23.118,0,0,0,81.17,17.916a16.642,16.642,0,0,0,6.3-13.386V-19.915q13.223,20.37,40.3,33.757,30.854,15.714,71.152,15.714,69.893,0,110.191-51.217Q345-67.64,345-135.735q0-69.26-35.891-115.239-40.3-51.217-110.191-51.217-37.78,0-65.485,12.8-27.076,12.8-45.966,40.159V-400.551a17.25,17.25,0,0,0-6.3-13.968,22.059,22.059,0,0,0-13.223-4.074,21.107,21.107,0,0,0-13.853,4.656Q48.428-408.7,48.428-399.387ZM198.918-270.18q51,0,80.6,41.323,25.816,36.667,25.816,92.54,0,55.291-25.816,91.958Q250.55-3.036,198.918-3.036q-55.411,0-85-41.323Q87.467-80.444,87.467-136.317q0-56.455,26.446-92.54Q143.507-270.18,198.918-270.18Z" transform="translate(500 418.594)"/>
      <path id="빼기_1" data-name="빼기 1" class="cls-2" d="M134,281a128.267,128.267,0,0,1-52.159-11.041A132.19,132.19,0,0,1,59.079,257a136.572,136.572,0,0,1-19.832-17.156,140.3,140.3,0,0,1-16.363-20.794A142.792,142.792,0,0,1,10.53,195.189a144.8,144.8,0,0,1-7.808-26.373,148.615,148.615,0,0,1,0-56.631A144.8,144.8,0,0,1,10.53,85.811,142.793,142.793,0,0,1,22.885,61.945,140.3,140.3,0,0,1,39.248,41.152,136.573,136.573,0,0,1,59.079,24,132.19,132.19,0,0,1,81.841,11.041a128.575,128.575,0,0,1,104.318,0A132.19,132.19,0,0,1,208.921,24a136.573,136.573,0,0,1,19.832,17.156,140.3,140.3,0,0,1,16.363,20.794A142.793,142.793,0,0,1,257.47,85.811a144.8,144.8,0,0,1,7.808,26.373,148.614,148.614,0,0,1,0,56.631,144.8,144.8,0,0,1-7.808,26.373,142.793,142.793,0,0,1-12.355,23.866,140.3,140.3,0,0,1-16.363,20.794A136.572,136.572,0,0,1,208.921,257a132.19,132.19,0,0,1-22.762,12.954A128.267,128.267,0,0,1,134,281Zm.5-242.206c-53.762,0-97.5,45.86-97.5,102.229s43.738,102.23,97.5,102.23,97.5-45.86,97.5-102.23S188.262,38.795,134.5,38.795Z" transform="translate(563 142.537)"/>
    </g>
  </g>
</svg>
